<mxfile host="app.diagrams.net" agent="Mozilla/5.0 (Windows NT 10.0; Win64; x64) AppleWebKit/537.36 (KHTML, like Gecko) Chrome/131.0.0.0 Safari/537.36" version="25.0.3">
  <diagram name="Trang-1" id="FzwDL3OaJj-S1XqCsA5K">
    <mxGraphModel dx="1877" dy="557" grid="1" gridSize="10" guides="1" tooltips="1" connect="1" arrows="1" fold="1" page="1" pageScale="1" pageWidth="827" pageHeight="1169" math="0" shadow="0">
      <root>
        <mxCell id="0" />
        <mxCell id="1" parent="0" />
        <mxCell id="eAIrChh5NBSyCNev4m4I-1" style="edgeStyle=orthogonalEdgeStyle;rounded=0;orthogonalLoop=1;jettySize=auto;html=1;exitX=0.5;exitY=1;exitDx=0;exitDy=0;exitPerimeter=0;" parent="1" source="eAIrChh5NBSyCNev4m4I-2" edge="1">
          <mxGeometry relative="1" as="geometry">
            <mxPoint x="-462.47058823529414" y="210" as="targetPoint" />
            <Array as="points">
              <mxPoint x="-460" y="210" />
            </Array>
          </mxGeometry>
        </mxCell>
        <mxCell id="eAIrChh5NBSyCNev4m4I-2" value="Start" style="strokeWidth=2;html=1;shape=mxgraph.flowchart.start_1;whiteSpace=wrap;" parent="1" vertex="1">
          <mxGeometry x="-510" y="100" width="100" height="60" as="geometry" />
        </mxCell>
        <mxCell id="eAIrChh5NBSyCNev4m4I-4" style="edgeStyle=orthogonalEdgeStyle;rounded=0;orthogonalLoop=1;jettySize=auto;html=1;exitX=0.5;exitY=1;exitDx=0;exitDy=0;" parent="1" source="eAIrChh5NBSyCNev4m4I-5" target="ICfu8VrppDG3JeHukKZI-1" edge="1">
          <mxGeometry relative="1" as="geometry">
            <mxPoint x="-110" y="390" as="targetPoint" />
          </mxGeometry>
        </mxCell>
        <mxCell id="eAIrChh5NBSyCNev4m4I-5" value="input a, b=2" style="rounded=1;whiteSpace=wrap;html=1;absoluteArcSize=1;arcSize=14;strokeWidth=2;" parent="1" vertex="1">
          <mxGeometry x="-510" y="200" width="120" height="100" as="geometry" />
        </mxCell>
        <mxCell id="eAIrChh5NBSyCNev4m4I-40" style="edgeStyle=orthogonalEdgeStyle;rounded=0;orthogonalLoop=1;jettySize=auto;html=1;exitX=0.5;exitY=1;exitDx=0;exitDy=0;" parent="1" source="eAIrChh5NBSyCNev4m4I-32" target="eAIrChh5NBSyCNev4m4I-39" edge="1">
          <mxGeometry relative="1" as="geometry" />
        </mxCell>
        <mxCell id="eAIrChh5NBSyCNev4m4I-32" value="a !=0" style="rhombus;whiteSpace=wrap;html=1;" parent="1" vertex="1">
          <mxGeometry x="-535" y="490" width="170" height="140" as="geometry" />
        </mxCell>
        <mxCell id="ICfu8VrppDG3JeHukKZI-8" style="edgeStyle=orthogonalEdgeStyle;rounded=0;orthogonalLoop=1;jettySize=auto;html=1;entryX=0.5;entryY=0;entryDx=0;entryDy=0;" edge="1" parent="1" source="eAIrChh5NBSyCNev4m4I-39" target="ICfu8VrppDG3JeHukKZI-7">
          <mxGeometry relative="1" as="geometry" />
        </mxCell>
        <mxCell id="eAIrChh5NBSyCNev4m4I-39" value="dem =0" style="rounded=1;whiteSpace=wrap;html=1;absoluteArcSize=1;arcSize=14;strokeWidth=2;" parent="1" vertex="1">
          <mxGeometry x="-498.5" y="680" width="100" height="50" as="geometry" />
        </mxCell>
        <mxCell id="eAIrChh5NBSyCNev4m4I-52" value="End." style="strokeWidth=2;html=1;shape=mxgraph.flowchart.start_1;whiteSpace=wrap;" parent="1" vertex="1">
          <mxGeometry x="-540" y="830" width="100" height="60" as="geometry" />
        </mxCell>
        <mxCell id="eAIrChh5NBSyCNev4m4I-54" value="True" style="text;html=1;align=center;verticalAlign=middle;resizable=0;points=[];autosize=1;strokeColor=none;fillColor=none;" parent="1" vertex="1">
          <mxGeometry x="-425" y="638" width="50" height="30" as="geometry" />
        </mxCell>
        <mxCell id="ICfu8VrppDG3JeHukKZI-4" style="edgeStyle=orthogonalEdgeStyle;rounded=0;orthogonalLoop=1;jettySize=auto;html=1;entryX=0.5;entryY=0;entryDx=0;entryDy=0;" edge="1" parent="1" source="ICfu8VrppDG3JeHukKZI-1" target="ICfu8VrppDG3JeHukKZI-2">
          <mxGeometry relative="1" as="geometry" />
        </mxCell>
        <mxCell id="ICfu8VrppDG3JeHukKZI-1" value="a" style="shape=parallelogram;perimeter=parallelogramPerimeter;whiteSpace=wrap;html=1;fixedSize=1;" vertex="1" parent="1">
          <mxGeometry x="-498" y="370" width="120" height="60" as="geometry" />
        </mxCell>
        <mxCell id="ICfu8VrppDG3JeHukKZI-5" style="edgeStyle=orthogonalEdgeStyle;rounded=0;orthogonalLoop=1;jettySize=auto;html=1;" edge="1" parent="1" source="ICfu8VrppDG3JeHukKZI-2" target="eAIrChh5NBSyCNev4m4I-32">
          <mxGeometry relative="1" as="geometry" />
        </mxCell>
        <mxCell id="ICfu8VrppDG3JeHukKZI-2" value="while" style="ellipse;whiteSpace=wrap;html=1;" vertex="1" parent="1">
          <mxGeometry x="-655" y="430" width="120" height="80" as="geometry" />
        </mxCell>
        <mxCell id="ICfu8VrppDG3JeHukKZI-6" value="false" style="text;html=1;align=center;verticalAlign=middle;resizable=0;points=[];autosize=1;strokeColor=none;fillColor=none;" vertex="1" parent="1">
          <mxGeometry x="-675" y="568" width="50" height="30" as="geometry" />
        </mxCell>
        <mxCell id="ICfu8VrppDG3JeHukKZI-7" value="chạy lệnh for" style="ellipse;whiteSpace=wrap;html=1;" vertex="1" parent="1">
          <mxGeometry x="-390" y="730" width="120" height="80" as="geometry" />
        </mxCell>
        <mxCell id="ICfu8VrppDG3JeHukKZI-15" style="edgeStyle=orthogonalEdgeStyle;rounded=0;orthogonalLoop=1;jettySize=auto;html=1;entryX=0.5;entryY=0;entryDx=0;entryDy=0;" edge="1" parent="1" source="ICfu8VrppDG3JeHukKZI-9" target="ICfu8VrppDG3JeHukKZI-14">
          <mxGeometry relative="1" as="geometry" />
        </mxCell>
        <mxCell id="ICfu8VrppDG3JeHukKZI-9" value="i =2" style="rounded=0;whiteSpace=wrap;html=1;" vertex="1" parent="1">
          <mxGeometry x="-378" y="870" width="120" height="60" as="geometry" />
        </mxCell>
        <mxCell id="ICfu8VrppDG3JeHukKZI-10" style="edgeStyle=orthogonalEdgeStyle;rounded=0;orthogonalLoop=1;jettySize=auto;html=1;entryX=0.402;entryY=0.043;entryDx=0;entryDy=0;entryPerimeter=0;" edge="1" parent="1" source="ICfu8VrppDG3JeHukKZI-7" target="ICfu8VrppDG3JeHukKZI-9">
          <mxGeometry relative="1" as="geometry" />
        </mxCell>
        <mxCell id="ICfu8VrppDG3JeHukKZI-13" style="edgeStyle=orthogonalEdgeStyle;rounded=0;orthogonalLoop=1;jettySize=auto;html=1;entryX=0;entryY=0.5;entryDx=0;entryDy=0;entryPerimeter=0;" edge="1" parent="1" source="ICfu8VrppDG3JeHukKZI-11" target="eAIrChh5NBSyCNev4m4I-52">
          <mxGeometry relative="1" as="geometry">
            <mxPoint x="-540" y="1300" as="targetPoint" />
          </mxGeometry>
        </mxCell>
        <mxCell id="ICfu8VrppDG3JeHukKZI-11" value="dừng kết thúc&amp;nbsp;" style="ellipse;whiteSpace=wrap;html=1;" vertex="1" parent="1">
          <mxGeometry x="-730" y="820" width="120" height="80" as="geometry" />
        </mxCell>
        <mxCell id="ICfu8VrppDG3JeHukKZI-12" style="edgeStyle=orthogonalEdgeStyle;rounded=0;orthogonalLoop=1;jettySize=auto;html=1;entryX=0.333;entryY=0;entryDx=0;entryDy=0;entryPerimeter=0;" edge="1" parent="1" source="eAIrChh5NBSyCNev4m4I-32" target="ICfu8VrppDG3JeHukKZI-11">
          <mxGeometry relative="1" as="geometry" />
        </mxCell>
        <mxCell id="ICfu8VrppDG3JeHukKZI-18" style="edgeStyle=orthogonalEdgeStyle;rounded=0;orthogonalLoop=1;jettySize=auto;html=1;entryX=0.5;entryY=0;entryDx=0;entryDy=0;" edge="1" parent="1" source="ICfu8VrppDG3JeHukKZI-14" target="ICfu8VrppDG3JeHukKZI-17">
          <mxGeometry relative="1" as="geometry" />
        </mxCell>
        <mxCell id="ICfu8VrppDG3JeHukKZI-14" value="i*i&amp;lt;=b" style="rhombus;whiteSpace=wrap;html=1;" vertex="1" parent="1">
          <mxGeometry x="-358" y="990" width="80" height="80" as="geometry" />
        </mxCell>
        <mxCell id="ICfu8VrppDG3JeHukKZI-20" style="edgeStyle=orthogonalEdgeStyle;rounded=0;orthogonalLoop=1;jettySize=auto;html=1;" edge="1" parent="1" source="ICfu8VrppDG3JeHukKZI-17" target="ICfu8VrppDG3JeHukKZI-19">
          <mxGeometry relative="1" as="geometry" />
        </mxCell>
        <mxCell id="ICfu8VrppDG3JeHukKZI-25" style="edgeStyle=orthogonalEdgeStyle;rounded=0;orthogonalLoop=1;jettySize=auto;html=1;" edge="1" parent="1" source="ICfu8VrppDG3JeHukKZI-17">
          <mxGeometry relative="1" as="geometry">
            <mxPoint x="-210" y="1410" as="targetPoint" />
          </mxGeometry>
        </mxCell>
        <mxCell id="ICfu8VrppDG3JeHukKZI-17" value="b % i == 0" style="rhombus;whiteSpace=wrap;html=1;" vertex="1" parent="1">
          <mxGeometry x="-358" y="1110" width="80" height="80" as="geometry" />
        </mxCell>
        <mxCell id="ICfu8VrppDG3JeHukKZI-24" style="edgeStyle=orthogonalEdgeStyle;rounded=0;orthogonalLoop=1;jettySize=auto;html=1;entryX=0.5;entryY=0;entryDx=0;entryDy=0;" edge="1" parent="1" source="ICfu8VrppDG3JeHukKZI-19" target="ICfu8VrppDG3JeHukKZI-23">
          <mxGeometry relative="1" as="geometry" />
        </mxCell>
        <mxCell id="ICfu8VrppDG3JeHukKZI-19" value="dem++;" style="whiteSpace=wrap;html=1;" vertex="1" parent="1">
          <mxGeometry x="-375" y="1240" width="120" height="60" as="geometry" />
        </mxCell>
        <mxCell id="ICfu8VrppDG3JeHukKZI-21" value="true" style="text;html=1;align=center;verticalAlign=middle;resizable=0;points=[];autosize=1;strokeColor=none;fillColor=none;" vertex="1" parent="1">
          <mxGeometry x="-310" y="1198" width="40" height="30" as="geometry" />
        </mxCell>
        <mxCell id="ICfu8VrppDG3JeHukKZI-28" style="edgeStyle=orthogonalEdgeStyle;rounded=0;orthogonalLoop=1;jettySize=auto;html=1;entryX=0.5;entryY=0;entryDx=0;entryDy=0;" edge="1" parent="1" source="ICfu8VrppDG3JeHukKZI-23" target="ICfu8VrppDG3JeHukKZI-27">
          <mxGeometry relative="1" as="geometry" />
        </mxCell>
        <mxCell id="ICfu8VrppDG3JeHukKZI-23" value="Kết thúc vòng for" style="ellipse;whiteSpace=wrap;html=1;" vertex="1" parent="1">
          <mxGeometry x="-375" y="1360" width="120" height="80" as="geometry" />
        </mxCell>
        <mxCell id="ICfu8VrppDG3JeHukKZI-26" value="" style="endArrow=classic;html=1;rounded=0;entryX=1;entryY=0.5;entryDx=0;entryDy=0;" edge="1" parent="1" target="ICfu8VrppDG3JeHukKZI-23">
          <mxGeometry width="50" height="50" relative="1" as="geometry">
            <mxPoint x="-210" y="1400" as="sourcePoint" />
            <mxPoint x="-250" y="1400" as="targetPoint" />
          </mxGeometry>
        </mxCell>
        <mxCell id="ICfu8VrppDG3JeHukKZI-30" style="edgeStyle=orthogonalEdgeStyle;rounded=0;orthogonalLoop=1;jettySize=auto;html=1;" edge="1" parent="1" source="ICfu8VrppDG3JeHukKZI-27" target="ICfu8VrppDG3JeHukKZI-29">
          <mxGeometry relative="1" as="geometry" />
        </mxCell>
        <mxCell id="ICfu8VrppDG3JeHukKZI-36" style="edgeStyle=orthogonalEdgeStyle;rounded=0;orthogonalLoop=1;jettySize=auto;html=1;entryX=0;entryY=0.5;entryDx=0;entryDy=0;" edge="1" parent="1" source="ICfu8VrppDG3JeHukKZI-27" target="ICfu8VrppDG3JeHukKZI-35">
          <mxGeometry relative="1" as="geometry" />
        </mxCell>
        <mxCell id="ICfu8VrppDG3JeHukKZI-27" value="dem== 0" style="rhombus;whiteSpace=wrap;html=1;" vertex="1" parent="1">
          <mxGeometry x="-358" y="1500" width="80" height="80" as="geometry" />
        </mxCell>
        <mxCell id="ICfu8VrppDG3JeHukKZI-29" value="b" style="shape=parallelogram;perimeter=parallelogramPerimeter;whiteSpace=wrap;html=1;fixedSize=1;" vertex="1" parent="1">
          <mxGeometry x="-378" y="1660" width="120" height="60" as="geometry" />
        </mxCell>
        <mxCell id="ICfu8VrppDG3JeHukKZI-31" value="true" style="text;html=1;align=center;verticalAlign=middle;resizable=0;points=[];autosize=1;strokeColor=none;fillColor=none;" vertex="1" parent="1">
          <mxGeometry x="-320" y="1598" width="40" height="30" as="geometry" />
        </mxCell>
        <mxCell id="ICfu8VrppDG3JeHukKZI-37" style="edgeStyle=orthogonalEdgeStyle;rounded=0;orthogonalLoop=1;jettySize=auto;html=1;entryX=0.5;entryY=1;entryDx=0;entryDy=0;" edge="1" parent="1" source="ICfu8VrppDG3JeHukKZI-32" target="ICfu8VrppDG3JeHukKZI-35">
          <mxGeometry relative="1" as="geometry" />
        </mxCell>
        <mxCell id="ICfu8VrppDG3JeHukKZI-32" value="a--" style="whiteSpace=wrap;html=1;" vertex="1" parent="1">
          <mxGeometry x="-390" y="1800" width="120" height="60" as="geometry" />
        </mxCell>
        <mxCell id="ICfu8VrppDG3JeHukKZI-33" style="edgeStyle=orthogonalEdgeStyle;rounded=0;orthogonalLoop=1;jettySize=auto;html=1;entryX=0.588;entryY=0.003;entryDx=0;entryDy=0;entryPerimeter=0;" edge="1" parent="1" source="ICfu8VrppDG3JeHukKZI-29" target="ICfu8VrppDG3JeHukKZI-32">
          <mxGeometry relative="1" as="geometry" />
        </mxCell>
        <mxCell id="ICfu8VrppDG3JeHukKZI-39" style="edgeStyle=orthogonalEdgeStyle;rounded=0;orthogonalLoop=1;jettySize=auto;html=1;" edge="1" parent="1" source="ICfu8VrppDG3JeHukKZI-35">
          <mxGeometry relative="1" as="geometry">
            <mxPoint x="-160" y="560" as="targetPoint" />
          </mxGeometry>
        </mxCell>
        <mxCell id="ICfu8VrppDG3JeHukKZI-35" value="b++" style="whiteSpace=wrap;html=1;" vertex="1" parent="1">
          <mxGeometry x="-180" y="1510" width="120" height="60" as="geometry" />
        </mxCell>
        <mxCell id="ICfu8VrppDG3JeHukKZI-38" value="flase" style="text;html=1;align=center;verticalAlign=middle;resizable=0;points=[];autosize=1;strokeColor=none;fillColor=none;" vertex="1" parent="1">
          <mxGeometry x="-255" y="1488" width="50" height="30" as="geometry" />
        </mxCell>
        <mxCell id="ICfu8VrppDG3JeHukKZI-40" value="" style="endArrow=classic;html=1;rounded=0;entryX=1;entryY=0.5;entryDx=0;entryDy=0;" edge="1" parent="1" target="eAIrChh5NBSyCNev4m4I-32">
          <mxGeometry width="50" height="50" relative="1" as="geometry">
            <mxPoint x="-160" y="560" as="sourcePoint" />
            <mxPoint x="-480" y="580" as="targetPoint" />
          </mxGeometry>
        </mxCell>
      </root>
    </mxGraphModel>
  </diagram>
</mxfile>
